<svg width="153" height="153" viewBox="0 0 153 153" fill="none" xmlns="http://www.w3.org/2000/svg">
<circle class="changeable" opacity="0.5" cx="76.5" cy="76.5" r="61.54" fill="#DF5D5D"/>
<circle class="changeable" opacity="0.2" cx="76.5" cy="76.5" r="76.5" fill="#DF5D5D"/>
<circle class="changeable" cx="76.4996" cy="76.4998" r="45.9" fill="#DF5D5D"/>
<path d="M75.9576 53.1702C63.393 53.1702 53.1704 63.3927 53.1704 75.9574C53.1704 88.5221 63.393 98.7446 75.9576 98.7446C88.5223 98.7446 98.7449 88.5221 98.7449 75.9574C98.7449 63.3927 88.5223 53.1702 75.9576 53.1702ZM74.0587 59.8165C74.0587 59.2917 74.4834 58.867 75.0082 58.867H76.9071C77.432 58.867 77.8566 59.2917 77.8566 59.8165V75.008C77.8566 75.5328 77.432 75.9575 76.9071 75.9575H75.0082C74.4834 75.9575 74.0587 75.5328 74.0587 75.008V59.8165V59.8165ZM73.282 88.9871C68.0672 87.964 63.8832 83.7351 62.9047 78.5119C61.6759 71.9533 65.3026 66.0337 70.8054 63.7112C71.4455 63.4411 72.1597 63.882 72.1597 64.5769V66.6856C72.1597 67.0427 71.9507 67.3548 71.6332 67.5181C68.5688 69.0942 66.4629 72.281 66.4629 75.9574C66.4629 81.8621 71.8822 86.526 78.008 85.2361C81.7167 84.455 84.6606 81.3743 85.3066 77.6396C86.0617 73.2741 83.8076 69.3333 80.2861 67.5202C79.9664 67.3557 79.7555 67.0404 79.7555 66.6809V64.5791C79.7555 63.8878 80.4662 63.44 81.1034 63.7085C85.8841 65.7233 89.2503 70.4522 89.2503 75.9574C89.2502 84.162 81.7786 90.6541 73.282 88.9871Z" fill="white"/>
</svg>
