<svg width="13" height="13" viewBox="0 0 13 13" fill="none" xmlns="http://www.w3.org/2000/svg">
<path d="M6.5 0C2.91586 0 0 2.91586 0 6.5C0 10.0841 2.91586 13 6.5 13C10.0841 13 13 10.0841 13 6.5C13 2.91586 10.0841 0 6.5 0ZM6.11914 3.19049C5.53972 3.1656 4.96615 3.08417 4.41846 2.95176C4.50594 2.74447 4.60086 2.54541 4.70322 2.35677C5.12315 1.58295 5.6387 1.03992 6.11914 0.843246V3.19049ZM6.11914 3.9528V6.11914H3.74026C3.77378 5.27361 3.91789 4.43423 4.15623 3.67073C4.78782 3.82982 5.45085 3.92612 6.11914 3.9528ZM6.11914 6.88086V9.0472C5.45085 9.07388 4.78782 9.17018 4.15623 9.32927C3.91789 8.56577 3.77378 7.72639 3.74026 6.88086H6.11914ZM6.11914 9.80951V12.1568C5.6387 11.9601 5.12315 11.4171 4.70322 10.6432C4.60086 10.4546 4.50594 10.2555 4.41846 10.0482C4.96615 9.91583 5.53962 9.8344 6.11914 9.80951ZM6.88086 9.80951C7.46028 9.8344 8.03385 9.91583 8.58154 10.0482C8.49406 10.2555 8.39914 10.4546 8.29678 10.6432C7.87685 11.4171 7.3613 11.9601 6.88086 12.1568V9.80951ZM6.88086 9.0472V6.88086H9.25974C9.22622 7.72639 9.08211 8.56577 8.84377 9.32927C8.21218 9.17018 7.54915 9.07388 6.88086 9.0472ZM6.88086 6.11914V3.9528C7.54915 3.92612 8.21218 3.82982 8.84377 3.67073C9.08211 4.43423 9.22622 5.27361 9.25974 6.11914H6.88086ZM6.88086 3.19049V0.843246C7.3613 1.03992 7.87685 1.58295 8.29678 2.35677C8.39914 2.54541 8.49406 2.74447 8.58154 2.95176C8.03385 3.08417 7.46028 3.1656 6.88086 3.19049ZM8.96626 1.99346C8.77554 1.64196 8.56834 1.33212 8.34995 1.06779C9.11147 1.32785 9.80128 1.74392 10.3814 2.27752C10.0505 2.45476 9.69396 2.60869 9.31886 2.73733C9.21243 2.47886 9.0948 2.23021 8.96626 1.99346ZM4.03374 1.99346C3.9052 2.23021 3.78757 2.47886 3.68114 2.73733C3.30604 2.60869 2.94948 2.45466 2.61861 2.27752C3.19872 1.74392 3.88853 1.32785 4.65005 1.06779C4.43166 1.33212 4.22456 1.64186 4.03374 1.99346ZM3.42347 3.45322C3.16351 4.28487 3.01067 5.19149 2.97775 6.11914H0.774712C0.856239 4.88125 1.33162 3.74918 2.07707 2.84801C2.49076 3.08526 2.94382 3.28819 3.42347 3.45322ZM2.97775 6.88086C3.01067 7.80861 3.16351 8.71513 3.42347 9.54678C2.94382 9.71181 2.49076 9.91474 2.07707 10.152C1.33162 9.25082 0.856239 8.11875 0.774712 6.88086H2.97775ZM3.68114 10.2627C3.78757 10.5211 3.9052 10.7698 4.03374 11.0065C4.22456 11.358 4.43166 11.6679 4.65005 11.9322C3.88853 11.6721 3.19872 11.2561 2.61871 10.7225C2.94938 10.5453 3.30604 10.3913 3.68114 10.2627ZM8.96626 11.0065C9.0948 10.7698 9.21243 10.5211 9.31886 10.2627C9.69396 10.3913 10.0505 10.5453 10.3814 10.7225C9.80128 11.2561 9.11147 11.6721 8.34995 11.9322C8.56834 11.6679 8.77544 11.3581 8.96626 11.0065ZM9.57653 9.54678C9.83649 8.71513 9.98933 7.80851 10.0223 6.88086H12.2253C12.1438 8.11875 11.6684 9.25082 10.9229 10.152C10.5092 9.91474 10.0562 9.71181 9.57653 9.54678ZM10.0223 6.11914C9.98933 5.19139 9.83649 4.28487 9.57653 3.45322C10.0562 3.28819 10.5092 3.08526 10.9229 2.84801C11.6684 3.74918 12.1438 4.88125 12.2253 6.11914H10.0223Z" fill="#1E2227"/>
</svg>
