<svg width="13" height="13" viewBox="0 0 13 13" fill="none" xmlns="http://www.w3.org/2000/svg">
<path d="M8.4955 0H4.5045C0.862333 0 0 0.862333 0 4.5045V8.4955C0 12.1377 0.862333 13 4.5045 13H8.4955C12.1377 13 13 12.1377 13 8.4955V4.5045C13 0.862333 12.1285 0 8.4955 0ZM10.4953 9.27496H9.55067C9.19317 9.27496 9.08267 8.99058 8.44025 8.3395C7.88071 7.79783 7.63317 7.72471 7.49558 7.72471C7.30275 7.72471 7.2475 7.77996 7.2475 8.04592V8.89904C7.2475 9.12871 7.17438 9.26629 6.56879 9.26629C5.56888 9.26629 4.45846 8.66071 3.679 7.53188C2.50467 5.88088 2.18292 4.64208 2.18292 4.38533C2.18292 4.24775 2.23817 4.11938 2.50413 4.11938H3.44879C3.68713 4.11938 3.77921 4.22933 3.87129 4.48608C4.33875 5.83483 5.11875 7.01837 5.43996 7.01837C5.55913 7.01837 5.61438 6.96313 5.61438 6.66088V5.26554C5.57754 4.62313 5.23792 4.56842 5.23792 4.33929C5.23792 4.22879 5.33 4.11883 5.47625 4.11883H6.96258C7.16463 4.11883 7.23775 4.22879 7.23775 4.46712V6.34833C7.23775 6.54983 7.32983 6.6235 7.38454 6.6235C7.50371 6.6235 7.605 6.54983 7.82492 6.32992C8.50417 5.56833 8.99004 4.394 8.99004 4.394C9.0545 4.25642 9.16446 4.12804 9.40333 4.12804H10.348C10.6324 4.12804 10.6968 4.27429 10.6324 4.47633C10.5132 5.02721 9.35729 6.65979 9.35729 6.65979C9.25654 6.825 9.21971 6.89813 9.35729 7.08229C9.45804 7.21988 9.78846 7.50425 10.0089 7.761C10.4125 8.21979 10.7239 8.60492 10.8068 8.87142C10.8989 9.13683 10.7608 9.27442 10.4948 9.27442L10.4953 9.27496Z" fill="#21262B"/>
</svg>
